HIERARCHY
ROOT hip
{
	OFFSET 0.000000 0.000000 0.000000 
	CHANNELS 6 Xposition Yposition Zposition Xrotation Zrotation Yrotation
	JOINT abdomen
	{
		OFFSET 0.000000 3.402643 0.000000 
		CHANNELS 3 Xrotation Zrotation Yrotation
		JOINT chest
		{
			OFFSET 0.000000 8.438565 -0.680529 
			CHANNELS 3 Xrotation Zrotation Yrotation
			JOINT neck
			{
				OFFSET 0.000000 10.207942 -0.272212 
				CHANNELS 3 Xrotation Zrotation Yrotation
				JOINT head
				{
					OFFSET 0.000000 3.130431 0.000000 
					CHANNELS 3 Xrotation Zrotation Yrotation
					End Site
					{
						OFFSET 0.000000 3.130435 0.000000 
					}
				}
			}
			JOINT lCollar
			{
				OFFSET 3.470700 6.669187 -0.816635 
				CHANNELS 3 Yrotation Zrotation Xrotation
				JOINT lShldr
				{
					OFFSET 3.198488 0.000000 0.000000 
					CHANNELS 3 Zrotation Yrotation Xrotation
					JOINT lForeArm
					{
						OFFSET 10.139888 0.000000 0.000000 
						CHANNELS 3 Yrotation Zrotation Xrotation
						JOINT lHand
						{
							OFFSET 8.370511 0.000000 0.000000 
							CHANNELS 3 Zrotation Yrotation Xrotation
							End Site
							{
								OFFSET 4.083176 0.000000 0.000000 
							}
						}
					}
				}
			}
			JOINT rCollar
			{
				OFFSET -3.470700 6.669187 -0.816635 
				CHANNELS 3 Yrotation Zrotation Xrotation
				JOINT rShldr
				{
					OFFSET -3.198488 0.000000 0.000000 
					CHANNELS 3 Zrotation Yrotation Xrotation
					JOINT rForeArm
					{
						OFFSET -10.139888 0.000000 0.000000 
						CHANNELS 3 Yrotation Zrotation Xrotation
						JOINT rHand
						{
							OFFSET -8.370511 0.000000 0.000000 
							CHANNELS 3 Zrotation Yrotation Xrotation
							End Site
							{
								OFFSET -4.083176 0.000000 0.000000 
							}
						}
					}
				}
			}
		}
	}
	JOINT lThigh
	{
		OFFSET 5.308129 -1.633274 1.361059 
		CHANNELS 3 Xrotation Zrotation Yrotation
		JOINT lShin
		{
			OFFSET -2.041588 -20.007561 0.000000 
			CHANNELS 3 Xrotation Zrotation Yrotation
			JOINT lFoot
			{
				OFFSET 0.000000 -19.190928 -1.224953 
				CHANNELS 3 Xrotation Yrotation Zrotation
				End Site
				{
					OFFSET 0.000000 -2.449906 4.627600 
				}
			}
		}
	}
	JOINT rThigh
	{
		OFFSET -5.308129 -1.633274 1.361059 
		CHANNELS 3 Xrotation Zrotation Yrotation
		JOINT rShin
		{
			OFFSET 2.041588 -20.007561 0.000000 
			CHANNELS 3 Xrotation Zrotation Yrotation
			JOINT rFoot
			{
				OFFSET 0.000000 -19.190928 -1.224953 
				CHANNELS 3 Xrotation Yrotation Zrotation
				End Site
				{
					OFFSET 0.000000 -2.449906 4.627600 
				}
			}
		}
	}
}
MOTION
Frames: 11
Frame Time: 0.041667
-0.001446 53.540028 0.328963 0.015281 -0.160640 1.231823 -0.202867 -1.017794 5.550867 -0.022891 -2.631103 2.992019 0.000000 0.000000 1.297549 3.800558 -1.201557 7.998749 1.994514 -5.197196 -0.066307 -67.927406 9.117760 16.272688 -21.930227 -10.127905 0.184120 7.175318 0.005541 -0.197885 -2.073291 5.740149 -0.032077 69.997414 -10.220204 15.994469 22.056313 9.142480 0.185973 -6.503005 1.401555 -2.041011 -7.551804 4.214809 0.125835 15.585843 -3.309215 -0.808465 -8.337039 -0.217005 -0.943522 -7.072927 -4.077958 0.028241 15.140048 3.277331 0.570500 -8.423216 -2.749167 0.862214 
-0.003638 53.602871 0.364281 0.029094 -0.365053 2.705819 -0.405597 -2.258602 12.353542 -0.052194 -5.847550 6.673011 0.000000 0.000000 2.867914 8.444941 -2.649465 17.763105 2.026428 -4.493691 -0.053350 -65.288086 8.063235 16.616686 -21.241461 -11.135085 0.222496 8.258029 0.234520 -0.622607 -2.153154 5.878275 0.045403 70.024467 -10.651922 15.978795 21.412695 9.311210 0.253536 -6.883192 3.187223 -5.134254 -7.501410 4.496881 0.123082 15.118730 -3.299616 -0.766510 -7.970469 -1.727266 -1.048025 -6.452955 -3.748653 -0.055355 14.178856 3.239592 0.472283 -8.083669 -4.153584 0.781128 
-0.004184 53.618515 0.373072 0.061213 -0.535572 4.277362 -0.777409 -3.492378 18.982010 -0.075997 -9.012057 10.205709 0.000000 0.000000 4.480512 13.028363 -4.157663 27.440105 2.106382 -3.666201 -0.027852 -62.624863 7.033216 16.953691 -20.461637 -12.127282 0.283488 9.150728 0.488386 -1.057494 -2.251019 6.080780 0.156168 70.160461 -11.211857 15.948553 20.662586 9.747875 0.340776 -7.102841 5.307372 -8.863679 -7.733775 4.735919 0.120272 15.098766 -3.299485 -0.765173 -7.820042 -3.331604 -1.135538 -6.111829 -3.485498 -0.127818 13.752612 3.218626 0.442000 -8.054342 -5.678007 0.704172 
0.000000 53.498543 0.305648 0.140966 -0.588000 5.920680 -1.579400 -4.545870 24.255800 -0.081138 -11.618200 12.859500 0.000000 0.000000 6.000000 16.840300 -5.638830 35.604698 2.188578 -2.810312 -0.001600 -60.240200 6.206450 17.227100 -19.525499 -12.948100 0.400552 10.078557 0.751147 -1.508068 -2.352196 6.289758 0.270502 70.299858 -11.790388 15.917407 19.886646 10.196711 0.430919 -7.332713 7.500043 -13.019673 -8.672421 4.828678 0.146981 16.364857 -3.346981 -0.905014 -8.241468 -4.977678 -1.109998 -6.623362 -3.453089 -0.197466 14.911632 3.268945 0.563573 -8.767126 -7.294611 0.632392 
0.010322 53.172047 0.118773 0.286617 -0.465829 7.598319 -2.919785 -5.289261 27.298862 -0.058123 -13.293894 14.099704 0.000000 0.000000 7.315878 19.311069 -7.011647 41.139530 2.227221 -2.021616 0.013618 -58.374638 5.701050 17.393173 -18.427805 -13.479096 0.587695 11.266666 1.006811 -1.979855 -2.441995 6.447314 0.358690 70.337204 -12.277906 15.899037 19.165552 10.401958 0.507188 -7.743576 9.503284 -17.392633 -10.711632 4.735614 0.181811 19.500193 -3.476861 -1.197509 -9.489000 -6.637327 -0.951120 -8.415224 -3.777928 -0.249301 18.396254 3.414390 0.917017 -10.594095 -8.999483 0.561660 
0.021490 52.638126 -0.204996 0.472185 -0.223303 9.226099 -4.295254 -5.766469 28.452793 -0.012122 -14.204382 14.175374 0.000000 0.000000 8.417012 20.434372 -8.218807 44.157990 2.176512 -1.395702 0.006016 -57.021053 5.392597 17.459612 -17.403440 -13.753652 0.781114 12.940200 1.239383 -2.478377 -2.505727 6.495546 0.391018 70.166992 -12.564794 15.907110 18.579964 10.107853 0.552805 -8.506192 11.055137 -21.772951 -13.706823 4.490720 0.248237 24.247133 -3.662852 -1.674194 -11.342396 -8.183679 -0.657165 -11.571109 -4.258971 -0.275373 23.999399 3.634807 1.505209 -13.201004 -10.669835 0.315946 
0.026539 51.913364 -0.676648 0.660630 0.057650 10.708160 -5.049613 -6.064847 28.363611 0.048028 -14.649241 13.531502 0.000000 0.000000 9.317108 20.344748 -9.209007 45.081150 1.990654 -1.028158 -0.036195 -56.110439 5.096044 17.446981 -16.747332 -13.843108 0.897551 15.324302 1.432872 -3.009158 -2.528701 6.376553 0.337769 69.683716 -12.541431 15.955297 18.210548 9.058629 0.550996 -9.791324 11.893643 -25.951015 -17.437792 4.198074 0.338902 30.074774 -3.858332 -2.266191 -13.475947 -9.548857 -0.221030 -15.383269 -4.977664 -0.287406 30.727306 3.876024 2.184429 -16.246342 -12.078061 0.165571 
0.018501 51.014370 -1.307172 0.814910 0.295098 11.948647 -4.526672 -6.271750 27.677338 0.113491 -14.928055 12.613079 0.000000 0.000000 10.029876 19.176733 -9.930942 44.330078 1.623849 -1.014575 -0.124801 -55.573788 4.626344 17.375854 -16.754408 -13.818810 0.853750 18.644119 1.571285 -3.577721 -2.496229 6.032434 0.169230 68.781883 -12.098205 16.057272 18.137974 6.998525 0.484983 -11.769738 11.756850 -29.717213 -21.666656 3.954324 0.443313 36.503391 -4.044169 -2.934869 -15.638267 -10.672198 0.278965 -19.613991 -5.710900 -0.279835 37.803112 4.065731 2.911026 -19.196899 -13.162488 -0.046318 
-0.009586 49.957733 -2.107557 0.897985 0.407112 12.851700 -2.070240 -6.474530 27.040001 0.175430 -15.340400 11.865100 0.000000 0.000000 10.569020 17.064877 -10.333308 42.325867 1.030300 -1.450540 -0.271591 -55.342098 3.798450 17.266800 -17.719601 -13.752100 0.566455 23.124800 1.638630 -4.189590 -2.393620 5.405290 -0.144315 67.356003 -11.125500 16.226700 18.442900 3.671780 0.337990 -14.612200 10.382800 -32.861942 -26.143826 3.846021 0.554989 43.048153 -4.172040 -3.623220 -17.589991 -11.449199 0.840408 -23.938587 -6.463055 -0.274669 44.984058 4.191748 3.669371 -22.069221 -13.790672 -0.121726 
-0.063841 48.759304 -3.067548 0.882349 0.337312 13.353222 2.706291 -6.743101 26.934940 0.224199 -16.094496 11.606818 0.000000 0.000000 10.948249 14.143720 -10.364807 39.489601 0.198067 -2.374392 -0.480962 -55.373985 2.487314 17.137873 -19.762753 -13.696319 -0.000414 28.751705 1.681599 -4.830937 -2.211814 4.486124 -0.621754 65.330505 -9.567327 16.466475 19.172091 -1.036520 0.114412 -18.264462 7.752028 -35.175598 -30.707300 3.953771 0.675722 49.288216 -4.214429 -4.315293 -19.088308 -11.875370 1.386264 -28.477438 -6.873167 -0.220213 51.558327 4.208741 4.360595 -24.106689 -14.144130 -0.270036 
-0.146978 47.431973 -4.091903 0.778648 0.131524 13.516165 9.111165 -7.077611 27.194798 0.246917 -17.033125 11.654552 0.000000 0.000000 11.181270 10.547808 -9.974133 36.242355 -0.749360 -3.595456 -0.727751 -55.738575 0.807899 16.997055 -22.303387 -13.632792 -0.694226 34.551033 1.997627 -5.410524 -1.964272 3.461572 -1.238661 62.749615 -7.582217 16.736366 20.236719 -6.677859 -0.096668 -21.772221 4.815056 -36.448566 -35.223942 4.236428 0.764493 55.312519 -4.176326 -4.968762 -20.384064 -12.023439 1.903501 -32.657665 -7.230220 -0.219549 57.641293 4.117342 5.020196 -25.918390 -14.136715 -0.290269 
